<svg width="978" height="3148" viewBox="0 0 978 3148" fill="none" xmlns="http://www.w3.org/2000/svg">
<rect x="901" y="1447" width="20" height="22" fill="#96C85B"/>
<rect x="158" y="1884" width="19" height="20" fill="white"/>
<rect x="598" y="1933" width="45" height="45" fill="#2196F3"/>
<rect x="798" y="3103" width="45" height="45" fill="#2196F3"/>
<rect x="718" y="3081" width="25" height="25" fill="#FE5B92"/>
<rect x="397" y="2609" width="25" height="25" fill="white"/>
<rect x="98" y="2966" width="19" height="20" fill="white"/>
<rect x="538" y="1917" width="20" height="20" fill="#96C85B"/>
<rect x="958" y="1341" width="20" height="22" fill="#2196F3"/>
<rect x="861" y="1392" width="22" height="22" fill="white"/>
<rect x="478" y="817" width="50" height="50" fill="white"/>
<rect x="19" y="390" width="20" height="22" fill="white"/>
<rect x="899" y="719" width="20" height="22" fill="white"/>
<rect x="958" y="764" width="20" height="20" fill="#2196F3"/>
<rect y="591" width="20" height="22" fill="#2196F3"/>
<rect x="72" width="50" height="50" fill="#FE5B92"/>
<rect x="578" y="50" width="50" height="50" fill="#2196F3"/>
</svg>
