<svg width="19" height="12" viewBox="0 0 19 12" fill="none" xmlns="http://www.w3.org/2000/svg">
<path d="M17.0359 1.66101H12.3093V0.487154H17.0359V1.66101ZM9.16342 6.4757C9.46886 6.94837 9.62047 7.52136 9.62047 8.19468C9.62047 8.89141 9.4488 9.51568 9.09876 10.0675C8.8758 10.4331 8.60046 10.7408 8.26826 10.9894C7.89481 11.277 7.45224 11.4732 6.94391 11.5791C6.43334 11.685 5.88153 11.7374 5.28624 11.7374H0V0H5.66861C7.09775 0.0234102 8.10996 0.436989 8.70859 1.24966C9.06754 1.74796 9.24591 2.34659 9.24591 3.04221C9.24591 3.76012 9.06643 4.33423 8.70302 4.7701C8.50124 5.01424 8.2036 5.23719 7.80897 5.43785C8.40648 5.65746 8.8602 6.00081 9.16342 6.4757ZM2.70778 4.62741H5.19149C5.70205 4.62741 6.11452 4.53043 6.43223 4.33646C6.74994 4.14249 6.90823 3.79914 6.90823 3.30418C6.90823 2.75794 6.69866 2.39564 6.27727 2.22174C5.91609 2.10023 5.45346 2.0378 4.89161 2.0378H2.70666V4.62741H2.70778ZM7.14679 8.02746C7.14679 7.41769 6.89709 6.9963 6.3999 6.77C6.12121 6.64181 5.72881 6.57603 5.22605 6.57157H2.70666V9.69962H5.18703C5.69648 9.69962 6.09111 9.63273 6.37537 9.49339C6.88928 9.23699 7.14679 8.74984 7.14679 8.02746ZM18.7895 6.11786C18.8463 6.50134 18.872 7.05873 18.8619 7.78779H12.7407C12.7742 8.63279 13.0662 9.22361 13.6192 9.56139C13.9525 9.77319 14.3571 9.87687 14.8309 9.87687C15.3303 9.87687 15.7372 9.7509 16.0505 9.49116C16.221 9.35404 16.3715 9.15896 16.502 8.91482H18.746C18.6869 9.41424 18.4171 9.92035 17.9311 10.4343C17.1786 11.2514 16.124 11.6616 14.7696 11.6616C13.6504 11.6616 12.6638 11.316 11.8077 10.6271C10.9549 9.93595 10.5257 8.81449 10.5257 7.25939C10.5257 5.80127 10.9103 4.68427 11.6828 3.90727C12.4576 3.12916 13.4575 2.74122 14.6904 2.74122C15.4206 2.74122 16.0795 2.87165 16.6681 3.13473C17.2544 3.39782 17.7382 3.8114 18.1195 4.37993C18.4639 4.87935 18.6869 5.45792 18.7895 6.11786ZM16.5811 6.33636C16.5399 5.75222 16.3448 5.30965 15.9936 5.00755C15.6458 4.70433 15.2099 4.55272 14.6904 4.55272C14.1253 4.55272 13.6894 4.71548 13.3784 5.03542C13.0662 5.35425 12.8723 5.78789 12.792 6.33747L16.5811 6.33636Z" fill="#C4C4C4"/>
</svg>
