<svg width="18" height="18" viewBox="0 0 18 18" fill="none" xmlns="http://www.w3.org/2000/svg">
<path fill-rule="evenodd" clip-rule="evenodd" d="M8.68518 17.3704C3.89612 17.3704 0 13.4742 0 8.68518C0 3.89612 3.89612 0 8.68518 0C13.4742 0 17.3704 3.89612 17.3704 8.68518C17.3715 13.4742 13.4742 17.3704 8.68518 17.3704ZM16.0103 9.87353C15.7562 9.79326 13.7139 9.1846 11.3896 9.55581C12.3595 12.2223 12.7552 14.3939 12.831 14.8454C14.4954 13.7206 15.6792 11.9381 16.0103 9.87353ZM11.5836 15.5254C11.4732 14.8744 11.0429 12.6058 10.0006 9.89917C9.98389 9.90474 9.96828 9.91031 9.95156 9.91589C5.76671 11.374 4.26511 14.2758 4.13134 14.5489C5.3888 15.5299 6.96955 16.1151 8.68518 16.1151C9.713 16.1151 10.6929 15.9044 11.5836 15.5254ZM3.17375 13.6559C3.34208 13.3683 5.37765 9.99727 9.20466 8.75987C9.30165 8.72866 9.39863 8.69967 9.49673 8.6718C9.31056 8.25042 9.10768 7.82792 8.89476 7.41323C5.18926 8.52242 1.59412 8.4756 1.26972 8.46891C1.26749 8.54472 1.26638 8.61941 1.26638 8.69521C1.26638 10.6015 1.98875 12.3416 3.17375 13.6559ZM1.42356 7.17689C1.75576 7.18135 4.81247 7.19473 8.28275 6.27282C7.05315 4.08787 5.72769 2.25072 5.53261 1.98206C3.45579 2.96083 1.90403 4.87378 1.42356 7.17689ZM6.94725 1.48376C7.15237 1.75799 8.50012 3.59291 9.71523 5.82691C12.3528 4.83811 13.4698 3.33651 13.6035 3.147C12.2937 1.98429 10.5703 1.27753 8.68518 1.27753C8.08655 1.27753 7.50464 1.34887 6.94725 1.48376ZM14.4285 4.00426C14.2724 4.21606 13.0283 5.80907 10.286 6.92942C10.4588 7.2828 10.6238 7.64176 10.7787 8.00406C10.8333 8.13225 10.8868 8.25934 10.9381 8.38642C13.4062 8.07652 15.8598 8.5737 16.104 8.62498C16.0873 6.87479 15.4619 5.26729 14.4285 4.00426Z" fill="#C4C4C4"/>
</svg>
