<svg width="17" height="17" viewBox="0 0 17 17" fill="none" xmlns="http://www.w3.org/2000/svg">
<path d="M8.30281 1.49602C10.5201 1.49602 10.7821 1.50494 11.6572 1.54395C12.4665 1.58074 12.9057 1.71563 13.1989 1.82934C13.5868 1.97983 13.8633 2.15931 14.1531 2.45026C14.4441 2.74122 14.6236 3.01768 14.7741 3.40451C14.8878 3.69658 15.0227 4.13691 15.0594 4.94624C15.0996 5.82133 15.1074 6.08442 15.1074 8.30058C15.1074 10.5179 15.0985 10.7798 15.0594 11.6549C15.0227 12.4642 14.8878 12.9035 14.7741 13.1967C14.6236 13.5846 14.4441 13.8611 14.1531 14.1509C13.8622 14.4419 13.5857 14.6213 13.1989 14.7718C12.9068 14.8855 12.4665 15.0204 11.6572 15.0572C10.7821 15.0973 10.519 15.1051 8.30281 15.1051C6.08665 15.1051 5.82356 15.0962 4.94847 15.0572C4.13914 15.0204 3.69992 14.8855 3.40674 14.7718C3.0188 14.6213 2.74234 14.4419 2.4525 14.1509C2.16154 13.8599 1.98206 13.5835 1.83157 13.1967C1.71786 12.9046 1.58297 12.4642 1.54619 11.6549C1.50605 10.7798 1.49825 10.5167 1.49825 8.30058C1.49825 6.0833 1.50717 5.82133 1.54619 4.94624C1.58297 4.13691 1.71786 3.69769 1.83157 3.40451C1.98206 3.01657 2.16154 2.7401 2.4525 2.45026C2.74345 2.15931 3.01991 1.97983 3.40674 1.82934C3.69881 1.71563 4.13914 1.58074 4.94847 1.54395C5.82356 1.50494 6.08665 1.49602 8.30281 1.49602ZM8.30281 0C6.04763 0 5.76559 0.0100309 4.87935 0.0501626C3.99534 0.0902944 3.39225 0.230755 2.86385 0.435872C2.31761 0.647679 1.85498 0.931948 1.39346 1.39346C0.931948 1.85498 0.647682 2.31761 0.435876 2.86385C0.230758 3.39225 0.0902961 3.99534 0.0501643 4.87935C0.0100326 5.76448 0 6.04763 0 8.30281C0 10.558 0.0100326 10.84 0.0501643 11.7263C0.0902961 12.6103 0.230758 13.2134 0.435876 13.7418C0.647682 14.288 0.931948 14.7506 1.39346 15.2122C1.85498 15.6737 2.31761 15.9579 2.86385 16.1697C3.39225 16.3749 3.99534 16.5153 4.87935 16.5555C5.76448 16.5956 6.04763 16.6056 8.30281 16.6056C10.558 16.6056 10.84 16.5956 11.7263 16.5555C12.6103 16.5153 13.2134 16.3749 13.7418 16.1697C14.288 15.9579 14.7506 15.6737 15.2122 15.2122C15.6737 14.7506 15.9579 14.288 16.1698 13.7418C16.3749 13.2134 16.5153 12.6103 16.5555 11.7263C16.5956 10.8411 16.6056 10.558 16.6056 8.30281C16.6056 6.04763 16.5956 5.76559 16.5555 4.87935C16.5153 3.99534 16.3749 3.39225 16.1698 2.86385C15.9579 2.31761 15.6737 1.85498 15.2122 1.39346C14.7506 0.931948 14.288 0.647679 13.7418 0.435872C13.2134 0.230755 12.6103 0.0902944 11.7263 0.0501626C10.84 0.0100309 10.558 0 8.30281 0Z" fill="#C4C4C4"/>
<path d="M8.3028 4.03857C5.9484 4.03857 4.03992 5.94706 4.03992 8.30146C4.03992 10.6559 5.9484 12.5643 8.3028 12.5643C10.6572 12.5643 12.5657 10.6559 12.5657 8.30146C12.5657 5.94706 10.6572 4.03857 8.3028 4.03857ZM8.3028 11.0694C6.77445 11.0694 5.53594 9.83092 5.53594 8.30257C5.53594 6.77422 6.77445 5.53571 8.3028 5.53571C9.83115 5.53571 11.0697 6.77422 11.0697 8.30257C11.0708 9.83092 9.83115 11.0694 8.3028 11.0694Z" fill="#C4C4C4"/>
<path d="M12.7351 4.86723C13.2855 4.86723 13.7317 4.42104 13.7317 3.87063C13.7317 3.32022 13.2855 2.87402 12.7351 2.87402C12.1847 2.87402 11.7385 3.32022 11.7385 3.87063C11.7385 4.42104 12.1847 4.86723 12.7351 4.86723Z" fill="#C4C4C4"/>
</svg>
