<svg width="23" height="22" viewBox="0 0 23 22" fill="none" xmlns="http://www.w3.org/2000/svg">
<path d="M21.0012 0.178993L0.847645 9.00487C-0.255138 9.3737 -0.220019 10.6329 0.596181 10.9351L5.64651 12.7581L7.57813 19.6099C7.81274 20.3606 8.0052 20.6416 8.40557 20.6481C8.82702 20.6546 8.98857 20.4775 9.42687 20.0291C9.93963 19.4718 10.7207 18.596 11.9541 17.2085L17.2068 21.6978C18.1733 22.3152 18.8715 21.9951 19.1117 20.6595L22.4046 1.81841C22.7572 0.182242 21.9256 -0.306821 21.0012 0.178993ZM6.43883 12.3389L17.919 4.00863C18.4851 3.56994 18.6622 4.059 18.4065 4.39696L8.879 14.3098L8.39012 19.2573L6.43883 12.3389Z" fill="#2196F3"/>
</svg>
