<svg width="19" height="17" viewBox="0 0 19 17" fill="none" xmlns="http://www.w3.org/2000/svg">
<path d="M18.6099 3.09806C18.6355 4.03335 18.446 4.89952 18.1205 5.74118C17.5575 7.19707 16.7359 8.50804 15.8319 9.76884C14.5822 11.5112 13.2757 13.2068 11.6214 14.5958C10.8098 15.2758 9.93917 15.8443 8.87457 16.0651C8.13436 16.2178 7.5112 16.0194 6.9906 15.5043C6.24705 14.7686 5.81118 13.8456 5.52802 12.859C4.99962 11.0118 4.50912 9.15349 3.99744 7.30186C3.828 6.68985 3.62065 6.09121 3.32301 5.52825C3.25947 5.40897 3.19369 5.29081 3.11789 5.17933C2.67533 4.52162 2.37768 4.45585 1.7077 4.87389C1.46914 5.02215 1.23504 5.17599 1.00651 5.33986C0.880545 5.43015 0.798052 5.43461 0.699952 5.30084C0.497064 5.02438 0.283027 4.75684 0.0689911 4.48818C-0.0157314 4.38227 -0.0346831 4.29643 0.0823678 4.19722C1.39891 3.08468 2.58949 1.82276 4.01863 0.842874C4.53476 0.489492 5.07543 0.186275 5.74317 0.209685C6.4165 0.233095 6.94267 0.509559 7.33284 1.05022C7.77652 1.66446 7.96603 2.37569 8.08865 3.10921C8.3718 4.7992 8.59476 6.49922 9.02172 8.16246C9.16441 8.7165 9.32605 9.26497 9.60809 9.76773C9.95366 10.3831 10.3327 10.4633 10.8087 9.9539C11.8421 8.84916 12.618 7.5772 13.1207 6.14472C13.2322 5.82701 13.2434 5.49258 13.2255 5.15815C13.1932 4.5205 12.8242 4.1426 12.1866 4.09355C11.7451 4.05899 11.3159 4.12364 10.8979 4.26633C10.7061 4.33099 10.6136 4.29978 10.6916 4.07014C11.0996 2.87064 11.6671 1.76702 12.6927 0.973304C13.8977 0.0402407 15.2756 -0.191631 16.7326 0.148374C17.8496 0.40923 18.32 1.27206 18.5118 2.32329C18.5608 2.58638 18.5798 2.85615 18.6099 3.09806Z" fill="#C4C4C4"/>
</svg>
