<svg width="22" height="13" viewBox="0 0 22 13" fill="none" xmlns="http://www.w3.org/2000/svg">
<path fill-rule="evenodd" clip-rule="evenodd" d="M10.446 12.1324H11.7224C11.7224 12.1324 12.1081 12.09 12.3055 11.8782C12.4872 11.6831 12.4805 11.3175 12.4805 11.3175C12.4805 11.3175 12.4559 9.60518 13.2508 9.35213C14.0345 9.10354 15.0411 11.0076 16.1068 11.74C16.9139 12.294 17.5259 12.1725 17.5259 12.1725L20.3775 12.1324C20.3775 12.1324 21.8691 12.0398 21.1623 10.8671C21.1043 10.7712 20.7498 9.99981 19.042 8.4135C17.2539 6.7536 17.4936 7.02226 19.6473 4.15172C20.9594 2.40376 21.4834 1.33582 21.3195 0.87876C21.1634 0.442884 20.198 0.557705 20.198 0.557705L16.9875 0.57777C16.9875 0.57777 16.7489 0.545442 16.5728 0.651345C16.4 0.755019 16.2896 0.995809 16.2896 0.995809C16.2896 0.995809 15.7813 2.34914 15.1035 3.49958C13.6733 5.92755 13.1014 6.05575 12.8684 5.90526C12.3244 5.55411 12.4604 4.49396 12.4604 3.74037C12.4604 1.38709 12.8171 0.406095 11.7659 0.151927C11.417 0.0672042 11.1595 0.0125809 10.2665 0.00254792C9.12055 -0.00859979 8.1507 0.00589358 7.60223 0.275668C7.23659 0.454031 6.95455 0.853118 7.12734 0.876528C7.33915 0.904397 7.81961 1.00584 8.07489 1.35254C8.40375 1.80067 8.3926 2.80508 8.3926 2.80508C8.3926 2.80508 8.58212 5.57529 7.95116 5.91864C7.51863 6.15497 6.92445 5.67339 5.65027 3.46949C4.99701 2.34134 4.50428 1.09391 4.50428 1.09391C4.50428 1.09391 4.40953 0.860923 4.24008 0.736069C4.03385 0.58446 3.74736 0.536524 3.74736 0.536524L0.696227 0.556589C0.696227 0.556589 0.238057 0.568851 0.0697262 0.768395C-0.0796531 0.945643 0.0574637 1.3124 0.0574637 1.3124C0.0574637 1.3124 2.44642 6.90186 5.15085 9.71777C7.62899 12.3018 10.446 12.1324 10.446 12.1324Z" fill="#C4C4C4"/>
</svg>
