<svg width="22" height="21" viewBox="0 0 22 21" fill="none" xmlns="http://www.w3.org/2000/svg">
<path fill-rule="evenodd" clip-rule="evenodd" d="M11.2128 0C5.36874 0 0.631692 4.57975 0.631692 10.2297C0.631692 12.1624 1.18659 13.9701 2.1503 15.5116L0.24115 21L6.09925 19.1868C7.61504 19.9977 9.35843 20.4595 11.2128 20.4595C17.0568 20.4595 21.7939 15.8783 21.7939 10.2297C21.7939 4.5811 17.0568 0 11.2128 0ZM11.2128 18.7468C9.42445 18.7468 7.75834 18.228 6.36616 17.3384L2.98055 18.3855L4.08052 15.2237C3.0255 13.8194 2.40317 12.0945 2.40317 10.2311C2.40317 5.53454 6.35492 1.71401 11.2114 1.71401C16.0692 1.71401 20.0196 5.53454 20.0196 10.2311C20.021 14.9263 16.0692 18.7468 11.2128 18.7468ZM16.1732 12.5549C15.9077 12.415 14.6054 11.7346 14.361 11.6381C14.1165 11.5417 13.9381 11.4928 13.7485 11.7468C13.5588 12.0008 13.018 12.5699 12.8536 12.7396C12.6893 12.908 12.5305 12.9243 12.265 12.7831C12.0009 12.6432 11.1411 12.3349 10.1437 11.4086C9.36826 10.6874 8.85831 9.81277 8.7108 9.54657C8.5633 9.27901 8.7094 9.14319 8.84988 9.01824C8.97632 8.90551 9.13225 8.72216 9.27273 8.57548C9.41321 8.42744 9.46238 8.3215 9.55931 8.15037C9.65625 7.97924 9.61691 7.82577 9.5551 7.69267C9.49188 7.55957 9.0016 6.25572 8.7979 5.72468C8.5928 5.19363 8.36522 5.27241 8.20788 5.26698C8.05054 5.26154 7.87072 5.23302 7.69091 5.22623C7.51109 5.21944 7.21608 5.27513 6.95759 5.52639C6.70051 5.77901 5.97703 6.38475 5.92786 7.67094C5.87869 8.95576 6.79744 10.2324 6.92528 10.4104C7.05312 10.5896 8.6813 13.3752 11.3856 14.5202C14.0913 15.6651 14.1053 15.3161 14.6012 15.2903C15.0985 15.2645 16.2238 14.7158 16.4724 14.1154C16.7211 13.5138 16.7408 12.9909 16.6775 12.8795C16.6157 12.7668 16.4387 12.6948 16.1732 12.5549Z" fill="#96C85B"/>
</svg>
