<?xml version="1.0" encoding="utf-8"?>
<!-- Generator: Adobe Illustrator 25.2.0, SVG Export Plug-In . SVG Version: 6.00 Build 0)  -->
<svg version="1.1" id="Layer_1" xmlns="http://www.w3.org/2000/svg" xmlns:xlink="http://www.w3.org/1999/xlink" x="0px" y="0px"
	 viewBox="0 0 403.8 102.1" style="enable-background:new 0 0 403.8 102.1;" xml:space="preserve">
<style type="text/css">
	.st0{fill:none;}
	.st1{fill:#3CC6F4;}
	.st2{fill:#FFFFFF;}
</style>
<g>
	<path d="M32.2,36.6v9.4l-10.6,28h10.6v9.4H5.9v-6.8l11-30.6H7.2v-9.4L32.2,36.6L32.2,36.6z"/>
	<path d="M67.8,36.6v46.8H55.3l-7.4-21.2v21.2H35.9V36.6h11.9l8,21v-21H67.8z"/>
	<path d="M98.2,36.6l8.2,46.8H91.8L91,74.9h-5.1L85,83.3H70.3l7.3-46.8H98.2z M90.6,66.6c-0.7-5.3-1.4-11.8-2.2-19.6
		c-1.4,9-2.4,15.5-2.7,19.6H90.6z"/>
	<path d="M142.8,36.6l-8.2,21.1l9,25.6h-14.7l-5.8-20v20h-14.3V36.6h14.3v18.2l6.4-18.2H142.8z"/>
	<path d="M207.6,66.1c0,5.5-0.8,9.4-2.5,11.8c-1.7,2.4-4.2,3.9-7.6,4.5c-3.4,0.6-8.8,0.9-16.2,0.9h-26v-62h-10.8V9.7h33.3v25.2h3.5
		c6.9,0,12.2,0.4,15.7,1c3.5,0.7,6.2,2.2,7.9,4.6s2.6,6.1,2.6,11.2L207.6,66.1L207.6,66.1z M185.1,63.9V53.2c0-3.1-0.4-5-1.1-5.6
		s-2.8-1-6.2-1.1v24.2c2.8,0,4.8-0.3,5.8-0.9C184.6,69.1,185.1,67.1,185.1,63.9z"/>
	<path d="M247.8,36.6l-7.3,46.8h-21.7l-8.2-46.8h15c1.8,12.9,3,23.8,3.7,32.7c0.7-9,1.5-17,2.4-24l1-8.7H247.8z"/>
	<path d="M264.5,36.6v46.8h-14.3V36.6H264.5z"/>
	<path d="M300.4,50.7h-13.2v-3.5c0-1.6-0.2-2.6-0.5-3.1s-0.9-0.7-1.7-0.7c-0.9,0-1.5,0.3-2,0.9s-0.7,1.5-0.7,2.7
		c0,1.6,0.2,2.7,0.7,3.5c0.5,0.8,1.8,1.7,4,2.9c6.4,3.2,10.4,5.9,12,7.9s2.5,5.4,2.5,10c0,3.3-0.5,5.8-1.4,7.4
		c-0.9,1.6-2.7,2.9-5.3,4s-5.7,1.6-9.1,1.6c-3.8,0-7.1-0.6-9.8-1.9s-4.5-2.8-5.3-4.7c-0.8-1.9-1.2-4.6-1.2-8.1v-3.1h13.2v5.7
		c0,1.8,0.2,2.9,0.6,3.4s1,0.8,2,0.8s1.6-0.3,2.1-1c0.5-0.6,0.7-1.6,0.7-2.8c0-2.8-0.4-4.5-1.3-5.4c-0.9-0.9-3.1-2.3-6.7-4.2
		c-3.5-2-5.9-3.5-7-4.4s-2.1-2.2-2.9-3.8c-0.8-1.6-1.1-3.6-1.1-6.1c0-3.6,0.5-6.2,1.6-7.9c1.1-1.6,2.8-3,5.2-3.9
		c2.4-0.9,5.3-1.4,8.7-1.4c3.7,0,6.9,0.5,9.5,1.5c2.6,1,4.3,2.3,5.2,3.9c0.9,1.5,1.3,4.2,1.3,7.9V50.7z"/>
	<path d="M320.4,36.6v46.8h-14.3V36.6H320.4z"/>
	<path d="M358.7,63.9c0,4.7-0.1,8-0.4,10c-0.3,2-1.1,3.7-2.4,5.4s-3.2,2.9-5.5,3.7s-5,1.3-8.1,1.3c-2.9,0-5.6-0.4-7.9-1.2
		c-2.3-0.8-4.2-2-5.6-3.7c-1.4-1.6-2.3-3.4-2.5-5.3c-0.3-1.9-0.4-5.3-0.4-10.1v-8c0-4.7,0.1-8,0.4-10c0.3-2,1.1-3.7,2.4-5.4
		s3.2-2.9,5.5-3.7c2.3-0.9,5-1.3,8.1-1.3c2.9,0,5.6,0.4,7.9,1.2c2.3,0.8,4.2,2,5.6,3.7c1.4,1.6,2.3,3.4,2.5,5.3
		c0.3,1.9,0.4,5.3,0.4,10.1V63.9z M344.4,48.6c0-2.2-0.1-3.6-0.4-4.2c-0.3-0.6-0.9-0.9-1.8-0.9c-0.8,0-1.3,0.2-1.7,0.7
		c-0.4,0.5-0.6,1.9-0.6,4.4v21.8c0,2.7,0.1,4.4,0.4,5c0.3,0.6,0.9,1,1.8,1c1,0,1.6-0.4,1.9-1.1s0.4-2.5,0.4-5.2V48.6z"/>
	<path d="M395.9,36.6v46.8h-12.5l-7.4-21.2v21.2H364V36.6h11.9l8,21v-21H395.9z"/>
</g>
<rect x="238" y="-133.1" class="st0" width="0.5" height="11.1"/>
<g>
	<path d="M124.9,99.3h-2.2l-3.1-9.1h2.6l1.8,5.4l1.8-5.4h2.1l1.8,5.4l1.8-5.4h2.5l-3.1,9.1h-2.2l-1.9-5.5L124.9,99.3z"/>
	<path d="M139.9,99.4c-1.4,0-2.6-0.4-3.6-1.3s-1.4-2-1.4-3.5c0-1.3,0.4-2.5,1.3-3.4c0.9-0.9,2-1.4,3.4-1.4c1.3,0,2.4,0.5,3.1,1.4
		s1.2,2.1,1.2,3.4v0.7h-6.5c0.1,0.6,0.5,1.1,1,1.4s1.2,0.5,2,0.5c1,0,2-0.3,2.9-0.8v2C142.5,99.1,141.4,99.4,139.9,99.4z
		 M137.4,93.7h4c0-0.5-0.2-1-0.6-1.3c-0.3-0.3-0.8-0.5-1.4-0.5c-0.6,0-1,0.2-1.4,0.5C137.7,92.7,137.4,93.2,137.4,93.7z"/>
	<path d="M151.4,99.4c-1.3,0-2.3-0.5-3-1.3v1.1h-2.6V86.5h2.6v4.8c0.7-0.9,1.7-1.3,3-1.3c1.2,0,2.2,0.5,3.1,1.4
		c0.8,0.9,1.2,2,1.2,3.4s-0.4,2.5-1.2,3.4C153.6,99,152.6,99.4,151.4,99.4z M150.7,97.2c0.7,0,1.3-0.2,1.8-0.7
		c0.5-0.5,0.7-1.1,0.7-1.8c0-0.7-0.2-1.3-0.7-1.8c-0.4-0.5-1-0.7-1.8-0.7c-0.5,0-0.9,0.1-1.3,0.4c-0.4,0.2-0.7,0.6-0.9,1v2.4
		c0.2,0.4,0.5,0.7,0.9,1C149.7,97.1,150.2,97.2,150.7,97.2z"/>
	<path d="M165.9,99.4c-1.2,0-2.2-0.5-3.1-1.4c-0.8-0.9-1.2-2.1-1.2-3.4c0-1.3,0.4-2.5,1.2-3.4c0.8-0.9,1.8-1.4,3.1-1.4
		c1.3,0,2.3,0.5,3,1.3v-4.8h2.6v12.7h-2.6v-1.1C168.2,99,167.2,99.4,165.9,99.4z M166.6,97.2c0.5,0,0.9-0.1,1.3-0.4s0.7-0.6,0.9-1
		v-2.4c-0.2-0.4-0.5-0.7-0.9-1s-0.8-0.4-1.3-0.4c-0.7,0-1.3,0.2-1.8,0.7c-0.5,0.5-0.7,1.1-0.7,1.8c0,0.7,0.2,1.3,0.7,1.8
		C165.3,96.9,165.9,97.2,166.6,97.2z"/>
	<path d="M178.4,99.4c-1.4,0-2.6-0.4-3.6-1.3s-1.5-2-1.5-3.5c0-1.3,0.4-2.5,1.3-3.4c0.9-0.9,2-1.4,3.4-1.4c1.3,0,2.4,0.5,3.1,1.4
		s1.2,2.1,1.2,3.4v0.7h-6.5c0.1,0.6,0.5,1.1,1,1.4s1.2,0.5,2,0.5c1,0,2-0.3,2.9-0.8v2C181,99.1,179.8,99.4,178.4,99.4z M175.9,93.7
		h4c0-0.5-0.2-1-0.5-1.3c-0.3-0.3-0.8-0.5-1.4-0.5c-0.6,0-1,0.2-1.4,0.5C176.1,92.7,175.9,93.2,175.9,93.7z"/>
	<path d="M187.7,99.4c-1.6,0-2.9-0.3-3.8-0.9v-2.3c0.4,0.3,1,0.5,1.7,0.7c0.7,0.2,1.4,0.3,2,0.3c1,0,1.6-0.2,1.6-0.8
		c0-0.2-0.1-0.4-0.5-0.6c-0.2-0.1-0.3-0.1-0.5-0.2l-0.7-0.2c-0.1,0-0.2-0.1-0.4-0.1s-0.3-0.1-0.3-0.1c-1.1-0.3-1.8-0.6-2.3-1
		c-0.4-0.4-0.7-1-0.7-1.8c0-0.9,0.4-1.5,1.1-2s1.7-0.7,2.9-0.7c1.4,0,2.5,0.3,3.4,0.8v2.2c-1.1-0.6-2.2-0.9-3.3-0.9
		c-1,0-1.5,0.2-1.5,0.7c0,0.1,0,0.2,0.1,0.3c0,0.1,0.1,0.1,0.2,0.2c0,0,0.1,0.1,0.3,0.2c0.1,0,0.2,0.1,0.4,0.1
		c0.2,0,0.3,0.1,0.4,0.1l1,0.2c1,0.2,1.8,0.6,2.2,1s0.7,1.1,0.7,1.8c0,0.9-0.4,1.5-1.1,2C189.9,99.2,188.9,99.4,187.7,99.4z"/>
	<path d="M193.5,87.7c0-0.4,0.1-0.8,0.5-1.1c0.3-0.3,0.7-0.4,1.1-0.4s0.8,0.1,1.1,0.4c0.3,0.3,0.5,0.7,0.5,1.1
		c0,0.4-0.1,0.8-0.5,1.1s-0.7,0.5-1.1,0.5s-0.8-0.1-1.1-0.5S193.5,88.1,193.5,87.7z M196.3,99.2h-2.6v-9.1h2.6V99.2z"/>
	<path d="M205.6,91.2v-1h2.6v8c0,1.5-0.5,2.7-1.6,3.6s-2.3,1.2-3.7,1.2c-1.5,0-2.7-0.3-3.6-0.8v-2.3c1,0.6,2,0.9,3.3,0.9
		c0.4,0,0.7,0,1-0.1c0.3-0.1,0.6-0.2,1-0.4c0.3-0.2,0.5-0.4,0.7-0.8s0.2-0.7,0.2-1.2v-0.6c-0.7,0.9-1.7,1.3-3,1.3
		c-1.2,0-2.2-0.4-3-1.3c-0.8-0.9-1.2-2-1.2-3.2c0-1.3,0.4-2.4,1.2-3.2c0.8-0.9,1.8-1.3,3-1.3C203.9,89.9,204.9,90.3,205.6,91.2z
		 M203.3,96.8c0.5,0,0.9-0.1,1.3-0.4s0.7-0.5,0.9-0.9v-2.2c-0.2-0.4-0.5-0.7-0.9-0.9s-0.8-0.4-1.3-0.4c-0.7,0-1.3,0.2-1.7,0.7
		s-0.7,1-0.7,1.7c0,0.7,0.2,1.2,0.7,1.7C202.1,96.5,202.6,96.8,203.3,96.8z"/>
	<path d="M213.1,93.4v5.8h-2.6v-9.1h2.6v1.1c0.8-0.9,1.8-1.3,3-1.3c1,0,1.9,0.3,2.4,1s0.9,1.6,0.9,2.8v5.6h-2.6v-5
		c0-0.6-0.2-1.1-0.5-1.5s-0.7-0.5-1.2-0.5c-0.4,0-0.8,0.1-1.1,0.3C213.6,92.8,213.3,93.1,213.1,93.4z"/>
	<path d="M234.5,87.1v2.5c-1-0.8-2-1.1-3-1.1c-0.5,0-0.9,0.1-1.2,0.4c-0.3,0.3-0.5,0.6-0.5,1c0,0.2,0,0.4,0.2,0.6
		c0.1,0.3,0.5,0.7,1,1.2l3.2,3.2c0.4-0.6,0.6-1.5,0.7-2.6h2.5c-0.1,1.6-0.5,3-1.4,4.3l2.7,2.6h-3.2l-1-1c-1.1,0.8-2.4,1.2-3.8,1.2
		c-1.3,0-2.5-0.4-3.4-1.1c-0.9-0.7-1.3-1.7-1.3-3c0-0.9,0.2-1.6,0.6-2.3c0.5-0.6,1-1.1,1.5-1.4c-0.5-0.6-0.7-1.3-0.7-2
		c0-1,0.4-1.8,1-2.5c0.7-0.7,1.6-1,2.7-1C232.4,86.2,233.5,86.5,234.5,87.1z M230.7,97.2c0.7,0,1.4-0.2,2-0.7l-3.2-3.1
		c-0.3,0.1-0.6,0.4-0.8,0.8c-0.2,0.4-0.3,0.7-0.3,1.1c0,0.6,0.2,1.1,0.6,1.4C229.4,97,230,97.2,230.7,97.2z"/>
	<path d="M250,99.3h-2.3l-3.9-9.1h2.8l2.4,5.9l2.4-5.9h2.7L250,99.3z"/>
	<path d="M255.3,87.7c0-0.4,0.1-0.8,0.5-1.1c0.3-0.3,0.7-0.4,1.1-0.4s0.8,0.1,1.1,0.4c0.3,0.3,0.5,0.7,0.5,1.1
		c0,0.4-0.1,0.8-0.5,1.1s-0.7,0.5-1.1,0.5s-0.8-0.1-1.1-0.5S255.3,88.1,255.3,87.7z M258.1,99.2h-2.6v-9.1h2.6V99.2z"/>
	<path d="M264.4,99.4c-1.2,0-2.2-0.5-3.1-1.4c-0.8-0.9-1.2-2.1-1.2-3.4c0-1.3,0.4-2.5,1.2-3.4c0.8-0.9,1.8-1.4,3.1-1.4
		c1.3,0,2.3,0.5,3,1.3v-4.8h2.6v12.7h-2.6v-1.1C266.7,99,265.7,99.4,264.4,99.4z M265.1,97.2c0.5,0,0.9-0.1,1.3-0.4s0.7-0.6,0.9-1
		v-2.4c-0.2-0.4-0.5-0.7-0.9-1s-0.8-0.4-1.3-0.4c-0.7,0-1.3,0.2-1.8,0.7c-0.5,0.5-0.7,1.1-0.7,1.8c0,0.7,0.2,1.3,0.7,1.8
		C263.8,96.9,264.4,97.2,265.1,97.2z"/>
	<path d="M276.9,99.4c-1.4,0-2.6-0.4-3.6-1.3s-1.5-2-1.5-3.5c0-1.3,0.4-2.5,1.3-3.4c0.9-0.9,2-1.4,3.4-1.4c1.3,0,2.4,0.5,3.1,1.4
		s1.2,2.1,1.2,3.4v0.7h-6.5c0.1,0.6,0.5,1.1,1,1.4s1.2,0.5,2,0.5c1,0,2-0.3,2.9-0.8v2C279.5,99.1,278.4,99.4,276.9,99.4z
		 M274.4,93.7h4c0-0.5-0.2-1-0.5-1.3c-0.3-0.3-0.8-0.5-1.4-0.5c-0.6,0-1,0.2-1.4,0.5C274.7,92.7,274.5,93.2,274.4,93.7z"/>
	<path d="M282.3,94.6c0-1.3,0.5-2.5,1.4-3.4c0.9-0.9,2.1-1.4,3.6-1.4s2.7,0.5,3.6,1.4c1,0.9,1.4,2,1.4,3.4c0,1.4-0.5,2.5-1.4,3.4
		c-0.9,0.9-2.1,1.4-3.6,1.4s-2.7-0.5-3.6-1.4C282.7,97.1,282.3,96,282.3,94.6z M284.8,94.6c0,0.7,0.2,1.3,0.7,1.8
		c0.5,0.5,1.1,0.7,1.8,0.7s1.3-0.2,1.8-0.7c0.5-0.5,0.7-1.1,0.7-1.8c0-0.7-0.2-1.3-0.7-1.8c-0.5-0.5-1.1-0.7-1.8-0.7
		s-1.3,0.2-1.8,0.7C285,93.3,284.8,93.9,284.8,94.6z"/>
	<path d="M304.4,89.9c1.2,0,2.2,0.5,3,1.4c0.8,0.9,1.2,2,1.2,3.4c0,1.3-0.4,2.5-1.2,3.4c-0.8,0.9-1.8,1.4-3,1.4
		c-1.3,0-2.3-0.5-3-1.3v4.7h-2.6V90.1h2.6v1.1C302.1,90.3,303.1,89.9,304.4,89.9z M303.7,92.1c-0.5,0-0.9,0.1-1.3,0.4
		s-0.7,0.6-0.9,1v2.4c0.2,0.4,0.5,0.7,0.9,1s0.8,0.4,1.3,0.4c0.7,0,1.3-0.2,1.8-0.7c0.5-0.5,0.7-1.1,0.7-1.8c0-0.7-0.2-1.3-0.7-1.8
		C305,92.4,304.4,92.1,303.7,92.1z"/>
	<path d="M313.1,99.2h-2.6v-9.1h2.6v1.5c0.3-0.5,0.7-0.9,1.3-1.2c0.6-0.4,1.2-0.5,1.9-0.5c0.1,0,0.2,0,0.3,0v2.5
		c-0.2-0.1-0.5-0.1-0.8-0.1c-0.6,0-1.1,0.1-1.6,0.5s-0.8,0.7-1,1.1L313.1,99.2L313.1,99.2z"/>
	<path d="M317.7,94.6c0-1.3,0.5-2.5,1.4-3.4c0.9-0.9,2.1-1.4,3.6-1.4s2.7,0.5,3.6,1.4c1,0.9,1.4,2,1.4,3.4c0,1.4-0.5,2.5-1.4,3.4
		c-0.9,0.9-2.1,1.4-3.6,1.4s-2.7-0.5-3.6-1.4C318.1,97.1,317.7,96,317.7,94.6z M320.2,94.6c0,0.7,0.2,1.3,0.7,1.8
		c0.5,0.5,1.1,0.7,1.8,0.7s1.3-0.2,1.8-0.7c0.5-0.5,0.7-1.1,0.7-1.8c0-0.7-0.2-1.3-0.7-1.8c-0.5-0.5-1.1-0.7-1.8-0.7
		s-1.3,0.2-1.8,0.7C320.4,93.3,320.2,93.9,320.2,94.6z"/>
	<path d="M333.3,99.4c-1.2,0-2.2-0.5-3.1-1.4c-0.8-0.9-1.2-2.1-1.2-3.4c0-1.3,0.4-2.5,1.2-3.4c0.8-0.9,1.8-1.4,3.1-1.4
		c1.3,0,2.3,0.5,3,1.3v-4.8h2.6v12.7h-2.6v-1.1C335.6,99,334.6,99.4,333.3,99.4z M334,97.2c0.5,0,0.9-0.1,1.3-0.4s0.7-0.6,0.9-1
		v-2.4c-0.2-0.4-0.5-0.7-0.9-1s-0.8-0.4-1.3-0.4c-0.7,0-1.3,0.2-1.8,0.7c-0.5,0.5-0.7,1.1-0.7,1.8c0,0.7,0.2,1.3,0.7,1.8
		C332.7,96.9,333.3,97.2,334,97.2z"/>
	<path d="M347.5,95.9v-5.8h2.6v9.1h-2.6v-1.1c-0.8,0.9-1.8,1.3-3,1.3c-1,0-1.9-0.3-2.4-1s-0.9-1.6-0.9-2.8v-5.6h2.6v5
		c0,0.6,0.2,1.1,0.5,1.5c0.3,0.3,0.7,0.5,1.2,0.5c0.4,0,0.8-0.1,1.1-0.3C347,96.5,347.3,96.2,347.5,95.9z"/>
	<path d="M356.9,99.4c-1.3,0-2.5-0.4-3.5-1.3c-1-0.9-1.5-2.1-1.5-3.5s0.5-2.6,1.5-3.4c1-0.9,2.1-1.3,3.5-1.3c1,0,1.9,0.2,2.7,0.6
		v2.2c-0.8-0.4-1.6-0.5-2.3-0.5c-0.8,0-1.5,0.2-2,0.7c-0.5,0.5-0.8,1.1-0.8,1.8s0.3,1.4,0.8,1.8s1.2,0.7,2,0.7
		c0.9,0,1.8-0.2,2.5-0.6v2.2C358.9,99.2,358,99.4,356.9,99.4z"/>
	<path d="M362.8,96.4v-4.1H361v-2.1h1.8v-2.5h2.6v2.5h2.6v2.1h-2.6v3.6c0,0.5,0.1,0.8,0.3,1s0.5,0.3,0.9,0.3c0.5,0,0.9-0.1,1.3-0.3
		v2.1c-0.5,0.3-1.2,0.5-2.2,0.5C363.8,99.4,362.8,98.4,362.8,96.4z"/>
	<path d="M369.8,87.7c0-0.4,0.1-0.8,0.5-1.1c0.3-0.3,0.7-0.4,1.1-0.4s0.8,0.1,1.1,0.4c0.3,0.3,0.5,0.7,0.5,1.1
		c0,0.4-0.1,0.8-0.5,1.1s-0.7,0.5-1.1,0.5s-0.8-0.1-1.1-0.5S369.8,88.1,369.8,87.7z M372.7,99.2h-2.6v-9.1h2.6V99.2z"/>
	<path d="M374.7,94.6c0-1.3,0.5-2.5,1.4-3.4c0.9-0.9,2.1-1.4,3.6-1.4s2.7,0.5,3.6,1.4c1,0.9,1.4,2,1.4,3.4c0,1.4-0.5,2.5-1.4,3.4
		c-0.9,0.9-2.1,1.4-3.6,1.4s-2.7-0.5-3.6-1.4C375.2,97.1,374.7,96,374.7,94.6z M377.2,94.6c0,0.7,0.2,1.3,0.7,1.8
		c0.5,0.5,1.1,0.7,1.8,0.7s1.3-0.2,1.8-0.7c0.5-0.5,0.7-1.1,0.7-1.8c0-0.7-0.2-1.3-0.7-1.8c-0.5-0.5-1.1-0.7-1.8-0.7
		s-1.3,0.2-1.8,0.7C377.5,93.3,377.2,93.9,377.2,94.6z"/>
	<path d="M389.2,93.4v5.8h-2.6v-9.1h2.6v1.1c0.8-0.9,1.8-1.3,3-1.3c1,0,1.9,0.3,2.4,1s0.9,1.6,0.9,2.8v5.6H393v-5
		c0-0.6-0.2-1.1-0.5-1.5s-0.7-0.5-1.2-0.5c-0.4,0-0.8,0.1-1.1,0.3C389.7,92.8,389.4,93.1,389.2,93.4z"/>
</g>
<g>
	<g>
		<g>
			<path class="st1" d="M155.7,28l9.3,6c-0.2,0.5-0.3,1,0,1.5c0.4,0.8,1.4,1.1,2.2,0.7c0.8-0.4,1.1-1.4,0.7-2.2
				c-0.4-0.8-1.4-1.1-2.2-0.7c-0.3,0.1-0.4,0.3-0.6,0.5l-9-6.4c0,0-0.5-1.3-1.1-0.7C154.1,27.8,155.7,28,155.7,28z"/>
			<path class="st1" d="M184.9,9.9c-14.5,7.1-15.9,22.7-16,26.8c-1-0.5-1.9,1.2-2.1,1.8c-2.2-1.6-16.5-11.2-31.7-3
				c-12.5,6.7-3.7,9.1,1.3,9.9c1.9,0.3,3.6,1,5.2,2.1c1.7,1.2,4.1,2.7,6.1,3.5c3.7,1.4,10.2-3,10.2-3s-4.1,8-3.8,10.4
				c0.7,6.2,12.6,15.5,16.4,12.5c2.6-2,1-17.8,0.4-23.1c1.4,2.9,2.9,5.6,3.7,6.5c1,1,2.2,0.2,2.1-1c0-0.5-1.4-3.7-3-7.1
				c3.8,3.4,16,14.2,19.2,13.3c4.7-1.4,4.1-16.5-0.6-20.7c-1.8-1.6-10.7-3-10.7-3s7.3-2.7,8.4-6.5c0.6-2.1,0.7-4.9,0.8-7
				c0-1.9,0.5-3.7,1.3-5.4C194.5,12.2,197.7,3.7,184.9,9.9z M139.2,42.7c-1,0.5-2.3,0-2.9-1.2s-0.3-2.5,0.7-3.1c1-0.5,2.3,0,2.9,1.2
				C140.5,40.8,140.2,42.1,139.2,42.7z M149.9,49.6c-1,0.5-2.2,0.1-2.7-0.9c-0.5-1-0.1-2.2,0.9-2.7c1-0.5,2.2-0.1,2.7,0.9
				C151.2,47.9,150.9,49.1,149.9,49.6z M146.1,44.2c-1.4,0.7-3.2,0.2-4-1.3c-0.7-1.4-0.2-3.2,1.3-4c1.4-0.7,3.2-0.2,4,1.3
				C148.1,41.7,147.5,43.5,146.1,44.2z M158.3,60.5c-0.5-1-0.1-2.2,0.9-2.7c1-0.5,2.2-0.1,2.7,0.9c0.5,1,0.1,2.2-0.9,2.7
				C160,61.8,158.8,61.5,158.3,60.5z M165.6,66.6c-1.2,0.6-2.7,0.1-3.3-1.1c-0.6-1.2-0.1-2.7,1.1-3.3c1.2-0.6,2.7-0.1,3.3,1.1
				C167.3,64.5,166.8,66,165.6,66.6z"/>
		</g>
		<ellipse transform="matrix(0.8753 -0.4836 0.4836 0.8753 -2.3904 71.8948)" class="st2" cx="138.2" cy="40.6" rx="0" ry="0"/>
	</g>
</g>
</svg>
