<svg width="391" height="97" viewBox="0 0 391 97" fill="none" xmlns="http://www.w3.org/2000/svg">
<path d="M27.27 29.9V39.25L16.64 67.29H27.27V76.64H0.969971V69.85L11.95 39.24H2.25997V29.89H27.27V29.9Z" fill="black"/>
<path d="M62.83 29.9V76.65H50.32L42.9 55.4V76.65H30.97V29.9H42.9L50.9 50.95V29.9H62.83Z" fill="black"/>
<path d="M93.2301 29.9L101.39 76.65H86.8001L86.0301 68.25H80.9301L80.0701 76.65H65.3201L72.6001 29.9H93.2301ZM85.6601 59.95C84.9401 54.66 84.2101 48.11 83.4901 40.32C82.0401 49.27 81.1201 55.82 80.7501 59.95H85.6601Z" fill="black"/>
<path d="M137.83 29.9L129.64 51L138.61 76.64H123.87L118.09 56.6V76.64H103.82V29.9H118.09V48.06L124.45 29.9H137.83Z" fill="black"/>
<path d="M202.61 59.43C202.61 64.91 201.77 68.85 200.1 71.24C198.43 73.63 195.9 75.13 192.5 75.74C189.11 76.35 183.71 76.65 176.32 76.65H150.3V14.62H139.53V3.09H172.8V28.29H176.32C183.25 28.29 188.48 28.64 192.02 29.33C195.56 30.03 198.2 31.56 199.96 33.94C201.72 36.32 202.6 40.05 202.6 45.13V59.43H202.61ZM180.12 57.21V46.58C180.12 43.49 179.76 41.62 179.03 40.95C178.3 40.28 176.23 39.91 172.82 39.81V63.97C175.66 63.97 177.59 63.66 178.6 63.04C179.61 62.42 180.12 60.48 180.12 57.21Z" fill="black"/>
<path d="M242.8 29.9L235.54 76.65H213.86L205.61 29.9H220.66C222.41 42.78 223.66 53.67 224.4 62.58C225.14 53.57 225.92 45.57 226.75 38.59L227.74 29.9H242.8Z" fill="black"/>
<path d="M259.48 29.9V76.65H245.21V29.9H259.48Z" fill="black"/>
<path d="M295.44 44.04H282.19V40.58C282.19 38.96 282.02 37.93 281.68 37.49C281.34 37.05 280.78 36.83 279.98 36.83C279.12 36.83 278.47 37.13 278.03 37.73C277.59 38.33 277.37 39.23 277.37 40.45C277.37 42.01 277.62 43.18 278.11 43.97C278.58 44.76 279.93 45.71 282.14 46.83C288.49 50.04 292.49 52.68 294.14 54.74C295.79 56.8 296.61 60.12 296.61 64.7C296.61 68.03 296.15 70.48 295.24 72.06C294.32 73.64 292.56 74.96 289.94 76.03C287.32 77.1 284.27 77.63 280.79 77.63C276.97 77.63 273.71 77.01 271.01 75.78C268.31 74.55 266.54 72.98 265.71 71.07C264.87 69.16 264.46 66.46 264.46 62.96V59.9H277.71V65.59C277.71 67.34 277.9 68.47 278.27 68.97C278.64 69.47 279.3 69.72 280.25 69.72C281.2 69.72 281.9 69.4 282.37 68.77C282.83 68.14 283.07 67.19 283.07 65.94C283.07 63.19 282.63 61.39 281.75 60.54C280.85 59.69 278.62 58.28 275.07 56.3C271.52 54.3 269.17 52.84 268.02 51.94C266.87 51.04 265.91 49.78 265.16 48.19C264.4 46.59 264.02 44.55 264.02 42.07C264.02 38.49 264.56 35.87 265.63 34.22C266.7 32.57 268.44 31.27 270.83 30.34C273.23 29.41 276.12 28.94 279.51 28.94C283.22 28.94 286.38 29.45 288.98 30.47C291.59 31.49 293.32 32.78 294.17 34.32C295.02 35.87 295.44 38.5 295.44 42.22V44.04V44.04Z" fill="black"/>
<path d="M315.38 29.9V76.65H301.11V29.9H315.38Z" fill="black"/>
<path d="M353.71 57.27C353.71 61.97 353.58 65.29 353.32 67.25C353.06 69.2 352.25 70.99 350.88 72.61C349.51 74.23 347.67 75.47 345.34 76.33C343.01 77.19 340.3 77.63 337.21 77.63C334.27 77.63 331.63 77.22 329.3 76.4C326.96 75.58 325.08 74.36 323.66 72.72C322.24 71.08 321.39 69.3 321.12 67.38C320.85 65.46 320.71 62.09 320.71 57.27V49.27C320.71 44.57 320.84 41.25 321.1 39.29C321.36 37.34 322.17 35.55 323.54 33.93C324.91 32.31 326.75 31.07 329.08 30.21C331.41 29.34 334.12 28.91 337.21 28.91C340.15 28.91 342.79 29.32 345.12 30.14C347.46 30.96 349.34 32.19 350.76 33.82C352.18 35.46 353.03 37.24 353.3 39.16C353.57 41.09 353.71 44.45 353.71 49.27V57.27ZM339.44 41.91C339.44 39.73 339.3 38.34 339.02 37.74C338.74 37.13 338.15 36.83 337.27 36.83C336.52 36.83 335.95 37.08 335.56 37.57C335.17 38.06 334.97 39.51 334.97 41.92V63.75C334.97 66.46 335.1 68.14 335.36 68.77C335.62 69.41 336.23 69.72 337.17 69.72C338.14 69.72 338.76 69.35 339.03 68.62C339.3 67.89 339.44 66.15 339.44 63.39V41.91V41.91Z" fill="black"/>
<path d="M390.89 29.9V76.65H378.38L370.96 55.4V76.65H359.03V29.9H370.96L378.96 50.95V29.9H390.89Z" fill="black"/>
<path d="M119.97 92.6H117.79L114.72 83.46H117.28L119.08 88.86L120.86 83.43H122.91L124.74 88.86L126.5 83.46H129.04L125.93 92.6H123.71L121.82 87.13L119.97 92.6Z" fill="black"/>
<path d="M134.9 92.76C133.48 92.76 132.29 92.32 131.32 91.45C130.35 90.58 129.87 89.42 129.87 87.98C129.87 86.64 130.31 85.51 131.18 84.6C132.05 83.68 133.19 83.22 134.6 83.22C135.91 83.22 136.96 83.69 137.74 84.62C138.52 85.55 138.92 86.69 138.92 88.02V88.69H132.42C132.55 89.3 132.89 89.76 133.43 90.09C133.97 90.42 134.64 90.58 135.46 90.58C136.47 90.58 137.43 90.31 138.37 89.78V91.83C137.54 92.45 136.39 92.76 134.9 92.76ZM132.41 87.05H136.39C136.37 86.53 136.18 86.1 135.84 85.75C135.5 85.41 135.04 85.23 134.49 85.23C133.92 85.23 133.45 85.4 133.07 85.73C132.69 86.07 132.47 86.51 132.41 87.05Z" fill="black"/>
<path d="M146.42 92.76C145.11 92.76 144.12 92.31 143.44 91.42V92.53H140.88V79.81H143.44V84.57C144.15 83.67 145.15 83.23 146.42 83.23C147.66 83.23 148.67 83.69 149.47 84.61C150.28 85.51 150.69 86.63 150.69 87.99C150.69 89.35 150.28 90.49 149.47 91.41C148.67 92.31 147.66 92.76 146.42 92.76ZM145.7 90.53C146.43 90.53 147.01 90.29 147.46 89.8C147.92 89.3 148.15 88.7 148.15 87.98C148.15 87.28 147.92 86.68 147.46 86.18C147.01 85.7 146.42 85.45 145.7 85.45C145.22 85.45 144.77 85.57 144.37 85.82C143.97 86.07 143.66 86.39 143.44 86.79V89.15C143.66 89.55 143.97 89.88 144.37 90.13C144.77 90.4 145.21 90.53 145.7 90.53Z" fill="black"/>
<path d="M160.9 92.76C159.68 92.76 158.65 92.31 157.83 91.4C157.03 90.48 156.63 89.34 156.63 87.98C156.63 86.64 157.03 85.51 157.83 84.6C158.64 83.68 159.66 83.22 160.9 83.22C162.17 83.22 163.16 83.67 163.88 84.56V79.8H166.44V92.52H163.88V91.41C163.2 92.31 162.21 92.76 160.9 92.76ZM161.63 90.53C162.11 90.53 162.56 90.4 162.96 90.15C163.36 89.9 163.67 89.57 163.89 89.17V86.81C163.67 86.41 163.36 86.09 162.96 85.84C162.56 85.59 162.12 85.47 161.63 85.47C160.9 85.47 160.32 85.71 159.87 86.2C159.41 86.7 159.18 87.3 159.18 88C159.18 88.71 159.41 89.32 159.87 89.82C160.31 90.28 160.9 90.53 161.63 90.53Z" fill="black"/>
<path d="M173.38 92.76C171.96 92.76 170.77 92.32 169.8 91.45C168.83 90.58 168.35 89.42 168.35 87.98C168.35 86.64 168.79 85.51 169.66 84.6C170.53 83.68 171.67 83.22 173.08 83.22C174.39 83.22 175.44 83.69 176.22 84.62C177 85.55 177.4 86.69 177.4 88.02V88.69H170.9C171.03 89.3 171.37 89.76 171.91 90.09C172.45 90.42 173.12 90.58 173.94 90.58C174.95 90.58 175.91 90.31 176.85 89.78V91.83C176.02 92.45 174.87 92.76 173.38 92.76ZM170.89 87.05H174.87C174.85 86.53 174.66 86.1 174.32 85.75C173.98 85.41 173.52 85.23 172.97 85.23C172.4 85.23 171.93 85.4 171.55 85.73C171.17 86.07 170.95 86.51 170.89 87.05Z" fill="black"/>
<path d="M182.7 92.76C181.09 92.76 179.82 92.48 178.88 91.91V89.64C179.32 89.93 179.87 90.18 180.54 90.38C181.21 90.58 181.89 90.68 182.58 90.68C183.62 90.68 184.14 90.43 184.14 89.92C184.14 89.68 183.99 89.49 183.69 89.36C183.53 89.29 183.37 89.23 183.22 89.2L182.55 89.04C182.45 89.02 182.32 88.98 182.16 88.94C182 88.9 181.88 88.86 181.82 88.84C180.74 88.55 179.98 88.2 179.54 87.8C179.1 87.39 178.88 86.8 178.88 86.03C178.88 85.17 179.23 84.49 179.94 83.99C180.65 83.49 181.63 83.25 182.87 83.25C184.25 83.25 185.38 83.53 186.27 84.09V86.27C185.19 85.64 184.1 85.33 182.98 85.33C182.01 85.33 181.53 85.57 181.53 86.06C181.53 86.16 181.56 86.24 181.61 86.32C181.66 86.4 181.72 86.46 181.77 86.49C181.82 86.53 181.91 86.58 182.03 86.65C182.1 86.67 182.24 86.71 182.43 86.77C182.62 86.82 182.75 86.86 182.81 86.89L183.77 87.09C184.77 87.32 185.52 87.66 186 88.12C186.48 88.58 186.73 89.19 186.73 89.96C186.73 90.81 186.36 91.49 185.62 92.01C184.91 92.5 183.93 92.76 182.7 92.76Z" fill="black"/>
<path d="M188.53 81.06C188.53 80.62 188.68 80.26 188.98 79.96C189.28 79.66 189.64 79.52 190.06 79.52C190.48 79.52 190.84 79.67 191.14 79.96C191.44 80.26 191.59 80.62 191.59 81.06C191.59 81.48 191.44 81.84 191.14 82.14C190.84 82.44 190.48 82.59 190.06 82.59C189.64 82.59 189.28 82.44 188.98 82.14C188.68 81.84 188.53 81.48 188.53 81.06ZM191.35 92.52H188.79V83.45H191.35V92.52Z" fill="black"/>
<path d="M200.6 84.51V83.46H203.16V91.47C203.16 93.02 202.64 94.21 201.6 95.03C200.56 95.85 199.33 96.27 197.91 96.27C196.42 96.27 195.23 96.01 194.35 95.49V93.18C195.31 93.76 196.4 94.05 197.64 94.05C198.02 94.05 198.37 94.01 198.69 93.93C199.02 93.85 199.33 93.72 199.64 93.55C199.94 93.37 200.18 93.12 200.35 92.79C200.52 92.46 200.6 92.06 200.6 91.6V91.04C199.89 91.9 198.89 92.33 197.6 92.33C196.36 92.33 195.35 91.89 194.57 91.02C193.78 90.14 193.39 89.05 193.39 87.77C193.39 86.5 193.78 85.42 194.57 84.54C195.36 83.67 196.37 83.23 197.6 83.23C198.88 83.22 199.88 83.65 200.6 84.51ZM198.35 90.11C198.83 90.11 199.28 89.99 199.68 89.76C200.08 89.53 200.39 89.23 200.61 88.87V86.69C200.39 86.33 200.08 86.03 199.68 85.8C199.28 85.57 198.84 85.45 198.35 85.45C197.64 85.45 197.06 85.67 196.61 86.11C196.16 86.55 195.95 87.11 195.95 87.77C195.95 88.44 196.18 88.99 196.63 89.43C197.08 89.89 197.66 90.11 198.35 90.11Z" fill="black"/>
<path d="M208.14 86.75V92.53H205.58V83.46H208.14V84.55C208.95 83.67 209.96 83.22 211.17 83.22C212.21 83.22 213.02 83.55 213.6 84.21C214.18 84.87 214.47 85.79 214.47 86.96V92.52H211.91V87.49C211.91 86.84 211.75 86.35 211.43 86.04C211.11 85.73 210.69 85.57 210.19 85.57C209.8 85.57 209.42 85.68 209.04 85.91C208.66 86.12 208.36 86.41 208.14 86.75Z" fill="black"/>
<path d="M229.52 80.48V82.93C228.51 82.17 227.52 81.79 226.54 81.79C226.07 81.79 225.67 81.92 225.36 82.19C225.04 82.46 224.89 82.78 224.89 83.17C224.89 83.39 224.94 83.61 225.05 83.82C225.2 84.1 225.53 84.5 226.05 85.02L229.23 88.18C229.65 87.54 229.88 86.67 229.92 85.58H232.37C232.31 87.19 231.84 88.62 230.97 89.87L233.66 92.52H230.43L229.38 91.52C228.25 92.36 226.98 92.77 225.56 92.77C224.22 92.77 223.1 92.41 222.2 91.7C221.32 90.97 220.87 89.97 220.87 88.68C220.87 87.8 221.09 87.04 221.52 86.41C221.98 85.77 222.48 85.31 223.03 85.05C222.58 84.46 222.36 83.78 222.36 83.01C222.36 82.02 222.71 81.19 223.41 80.54C224.11 79.87 225.03 79.54 226.15 79.54C227.42 79.55 228.54 79.86 229.52 80.48ZM225.72 90.54C226.45 90.54 227.1 90.3 227.68 89.83L224.5 86.69C224.2 86.84 223.93 87.08 223.71 87.44C223.49 87.79 223.37 88.17 223.37 88.58C223.37 89.19 223.59 89.66 224.02 90.02C224.47 90.37 225.03 90.54 225.72 90.54Z" fill="black"/>
<path d="M245 92.6H242.67L238.73 83.46H241.49L243.89 89.35L246.27 83.46H248.94L245 92.6Z" fill="black"/>
<path d="M250.32 81.06C250.32 80.62 250.47 80.26 250.77 79.96C251.07 79.66 251.43 79.52 251.85 79.52C252.27 79.52 252.63 79.67 252.93 79.96C253.23 80.26 253.38 80.62 253.38 81.06C253.38 81.48 253.23 81.84 252.93 82.14C252.63 82.44 252.27 82.59 251.85 82.59C251.43 82.59 251.07 82.44 250.77 82.14C250.47 81.84 250.32 81.48 250.32 81.06ZM253.14 92.52H250.58V83.45H253.14V92.52Z" fill="black"/>
<path d="M259.44 92.76C258.22 92.76 257.19 92.31 256.37 91.4C255.57 90.48 255.17 89.34 255.17 87.98C255.17 86.64 255.57 85.51 256.37 84.6C257.18 83.68 258.2 83.22 259.44 83.22C260.71 83.22 261.7 83.67 262.42 84.56V79.8H264.98V92.52H262.42V91.41C261.74 92.31 260.75 92.76 259.44 92.76ZM260.17 90.53C260.65 90.53 261.1 90.4 261.5 90.15C261.9 89.9 262.21 89.57 262.43 89.17V86.81C262.21 86.41 261.9 86.09 261.5 85.84C261.1 85.59 260.66 85.47 260.17 85.47C259.44 85.47 258.86 85.71 258.41 86.2C257.95 86.7 257.72 87.3 257.72 88C257.72 88.71 257.95 89.32 258.41 89.82C258.86 90.28 259.44 90.53 260.17 90.53Z" fill="black"/>
<path d="M271.92 92.76C270.5 92.76 269.31 92.32 268.34 91.45C267.37 90.58 266.89 89.42 266.89 87.98C266.89 86.64 267.33 85.51 268.2 84.6C269.07 83.68 270.21 83.22 271.62 83.22C272.93 83.22 273.98 83.69 274.76 84.62C275.54 85.55 275.94 86.69 275.94 88.02V88.69H269.44C269.57 89.3 269.91 89.76 270.45 90.09C270.99 90.42 271.66 90.58 272.48 90.58C273.49 90.58 274.45 90.31 275.39 89.78V91.83C274.57 92.45 273.42 92.76 271.92 92.76ZM269.44 87.05H273.42C273.4 86.53 273.21 86.1 272.87 85.75C272.53 85.41 272.07 85.23 271.52 85.23C270.95 85.23 270.48 85.4 270.1 85.73C269.71 86.07 269.5 86.51 269.44 87.05Z" fill="black"/>
<path d="M277.3 87.98C277.3 86.64 277.77 85.51 278.72 84.6C279.65 83.68 280.86 83.22 282.34 83.22C283.82 83.22 285.02 83.68 285.96 84.6C286.91 85.52 287.38 86.65 287.38 87.98C287.38 89.34 286.91 90.48 285.96 91.4C285.02 92.31 283.81 92.76 282.34 92.76C280.87 92.76 279.67 92.31 278.72 91.4C277.77 90.48 277.3 89.34 277.3 87.98ZM279.83 87.98C279.83 88.71 280.07 89.31 280.54 89.8C281.01 90.29 281.61 90.53 282.34 90.53C283.07 90.53 283.67 90.29 284.14 89.8C284.61 89.3 284.85 88.7 284.85 87.98C284.85 87.25 284.61 86.65 284.14 86.18C283.67 85.7 283.07 85.45 282.34 85.45C281.61 85.45 281.01 85.69 280.54 86.18C280.06 86.66 279.83 87.25 279.83 87.98Z" fill="black"/>
<path d="M299.45 83.22C300.69 83.22 301.7 83.68 302.5 84.6C303.31 85.5 303.72 86.63 303.72 88C303.72 89.34 303.31 90.48 302.5 91.4C301.7 92.31 300.68 92.76 299.45 92.76C298.18 92.76 297.19 92.31 296.47 91.42V96.16H293.91V83.46H296.47V84.57C297.15 83.67 298.14 83.22 299.45 83.22ZM298.72 85.46C298.24 85.46 297.79 85.59 297.39 85.84C296.99 86.09 296.68 86.42 296.46 86.82V89.18C296.68 89.58 296.99 89.9 297.39 90.15C297.79 90.4 298.23 90.52 298.72 90.52C299.45 90.52 300.03 90.28 300.48 89.79C300.94 89.29 301.17 88.69 301.17 87.99C301.17 87.28 300.94 86.67 300.48 86.17C300.04 85.7 299.45 85.46 298.72 85.46Z" fill="black"/>
<path d="M308.17 92.52H305.61V83.45H308.17V84.98C308.45 84.5 308.87 84.08 309.44 83.74C310.03 83.39 310.66 83.21 311.33 83.21C311.48 83.21 311.57 83.22 311.62 83.23V85.74C311.38 85.68 311.11 85.65 310.82 85.65C310.23 85.65 309.68 85.8 309.19 86.11C308.7 86.42 308.36 86.79 308.16 87.23V92.52H308.17Z" fill="black"/>
<path d="M312.69 87.98C312.69 86.64 313.16 85.51 314.11 84.6C315.04 83.68 316.25 83.22 317.73 83.22C319.21 83.22 320.41 83.68 321.35 84.6C322.3 85.52 322.77 86.65 322.77 87.98C322.77 89.34 322.3 90.48 321.35 91.4C320.41 92.31 319.2 92.76 317.73 92.76C316.26 92.76 315.06 92.31 314.11 91.4C313.17 90.48 312.69 89.34 312.69 87.98ZM315.22 87.98C315.22 88.71 315.46 89.31 315.93 89.8C316.4 90.29 317 90.53 317.73 90.53C318.46 90.53 319.06 90.29 319.53 89.8C320 89.3 320.24 88.7 320.24 87.98C320.24 87.25 320 86.65 319.53 86.18C319.06 85.7 318.46 85.45 317.73 85.45C317 85.45 316.4 85.69 315.93 86.18C315.46 86.66 315.22 87.25 315.22 87.98Z" fill="black"/>
<path d="M328.32 92.76C327.1 92.76 326.07 92.31 325.25 91.4C324.45 90.48 324.05 89.34 324.05 87.98C324.05 86.64 324.45 85.51 325.25 84.6C326.06 83.68 327.08 83.22 328.32 83.22C329.59 83.22 330.58 83.67 331.3 84.56V79.8H333.86V92.52H331.3V91.41C330.62 92.31 329.63 92.76 328.32 92.76ZM329.04 90.53C329.52 90.53 329.97 90.4 330.37 90.15C330.77 89.9 331.08 89.57 331.3 89.17V86.81C331.08 86.41 330.77 86.09 330.37 85.84C329.97 85.59 329.53 85.47 329.04 85.47C328.31 85.47 327.73 85.71 327.28 86.2C326.82 86.7 326.59 87.3 326.59 88C326.59 88.71 326.82 89.32 327.28 89.82C327.73 90.28 328.32 90.53 329.04 90.53Z" fill="black"/>
<path d="M342.54 89.24V83.46H345.1V92.53H342.54V91.44C341.73 92.32 340.72 92.77 339.51 92.77C338.47 92.77 337.66 92.44 337.08 91.78C336.5 91.12 336.21 90.2 336.21 89.03V83.47H338.77V88.5C338.77 89.15 338.93 89.64 339.25 89.95C339.57 90.27 339.99 90.42 340.5 90.42C340.89 90.42 341.27 90.31 341.65 90.08C342.03 89.86 342.33 89.57 342.54 89.24Z" fill="black"/>
<path d="M351.94 92.76C350.6 92.76 349.44 92.32 348.47 91.45C347.5 90.55 347.02 89.39 347.02 87.96C347.02 86.53 347.5 85.39 348.47 84.53C349.45 83.66 350.62 83.22 351.98 83.22C352.97 83.22 353.87 83.42 354.67 83.82V86C353.88 85.64 353.11 85.46 352.36 85.46C351.56 85.46 350.89 85.7 350.34 86.17C349.81 86.63 349.54 87.24 349.54 87.99C349.54 88.74 349.81 89.35 350.36 89.82C350.91 90.29 351.57 90.53 352.36 90.53C353.29 90.53 354.11 90.32 354.81 89.91V92.09C353.96 92.54 353 92.76 351.94 92.76Z" fill="black"/>
<path d="M357.84 89.71V85.6H356.06V83.46H357.84V80.97H360.4V83.46H362.98V85.6H360.4V89.2C360.4 89.65 360.5 89.97 360.69 90.17C360.88 90.37 361.2 90.47 361.63 90.47C362.08 90.47 362.52 90.36 362.96 90.14V92.27C362.43 92.6 361.71 92.76 360.8 92.76C358.83 92.76 357.84 91.74 357.84 89.71Z" fill="black"/>
<path d="M364.87 81.06C364.87 80.62 365.02 80.26 365.32 79.96C365.62 79.66 365.98 79.52 366.4 79.52C366.82 79.52 367.18 79.67 367.48 79.96C367.78 80.26 367.93 80.62 367.93 81.06C367.93 81.48 367.78 81.84 367.48 82.14C367.18 82.44 366.82 82.59 366.4 82.59C365.98 82.59 365.62 82.44 365.32 82.14C365.02 81.84 364.87 81.48 364.87 81.06ZM367.69 92.52H365.13V83.45H367.69V92.52Z" fill="black"/>
<path d="M369.72 87.98C369.72 86.64 370.19 85.51 371.14 84.6C372.07 83.68 373.28 83.22 374.76 83.22C376.24 83.22 377.44 83.68 378.38 84.6C379.33 85.52 379.8 86.65 379.8 87.98C379.8 89.34 379.33 90.48 378.38 91.4C377.44 92.31 376.23 92.76 374.76 92.76C373.29 92.76 372.09 92.31 371.14 91.4C370.19 90.48 369.72 89.34 369.72 87.98ZM372.25 87.98C372.25 88.71 372.49 89.31 372.96 89.8C373.43 90.29 374.03 90.53 374.76 90.53C375.49 90.53 376.09 90.29 376.56 89.8C377.03 89.3 377.27 88.7 377.27 87.98C377.27 87.25 377.03 86.65 376.56 86.18C376.09 85.7 375.49 85.45 374.76 85.45C374.03 85.45 373.43 85.69 372.96 86.18C372.48 86.66 372.25 87.25 372.25 87.98Z" fill="black"/>
<path d="M384.24 86.75V92.53H381.68V83.46H384.24V84.55C385.05 83.67 386.06 83.22 387.27 83.22C388.31 83.22 389.12 83.55 389.7 84.21C390.28 84.87 390.57 85.79 390.57 86.96V92.52H388.01V87.49C388.01 86.84 387.85 86.35 387.53 86.04C387.21 85.73 386.79 85.57 386.29 85.57C385.9 85.57 385.52 85.68 385.14 85.91C384.76 86.12 384.46 86.41 384.24 86.75Z" fill="black"/>
<path d="M156.83 22.93L164.82 25.08C164.75 25.46 164.86 25.86 165.16 26.15C165.63 26.62 166.4 26.62 166.88 26.15C167.35 25.68 167.35 24.91 166.88 24.43C166.41 23.96 165.64 23.96 165.16 24.43C165.01 24.58 164.91 24.75 164.86 24.93L157.02 22.45C157.02 22.45 156.36 21.68 156.08 22.24C155.61 23.14 156.83 22.93 156.83 22.93Z" fill="#3CC6F4"/>
<path d="M173.45 3.33999C164.73 11.7 167.3 23.11 168.17 26.08C167.34 25.96 167.12 27.38 167.07 27.81C165.17 27.19 152.77 23.64 143.85 32.95C136.51 40.61 143.32 40.27 147.04 39.66C148.43 39.43 149.86 39.54 151.21 39.95C152.71 40.41 154.74 40.95 156.36 41.01C159.31 41.13 162.92 36.56 162.92 36.56C162.92 36.56 161.87 43.21 162.6 44.86C164.5 49.11 175.1 53.04 177.17 50C178.53 48 173.81 37.07 172.18 33.44C173.87 35.17 175.52 36.75 176.32 37.19C177.28 37.65 177.94 36.86 177.57 35.98C177.42 35.6 175.7 33.66 173.81 31.6C177.29 33.17 188.47 38.03 190.5 36.65C193.55 34.58 189.62 23.98 185.36 22.08C183.71 21.35 177.06 22.4 177.06 22.4C177.06 22.4 181.64 18.78 181.51 15.84C181.44 14.22 180.91 12.19 180.45 10.69C180.03 9.33999 179.93 7.91998 180.16 6.51998C180.77 2.79998 181.1 -4.00001 173.45 3.33999ZM148.39 37.14C147.8 37.73 146.75 37.65 146.05 36.95C145.35 36.25 145.27 35.2 145.86 34.61C146.45 34.02 147.5 34.1 148.2 34.8C148.9 35.5 148.98 36.54 148.39 37.14ZM157.61 39.62C157.03 40.2 156.09 40.2 155.51 39.62C154.93 39.04 154.93 38.1 155.51 37.52C156.09 36.94 157.03 36.94 157.61 37.52C158.19 38.1 158.19 39.04 157.61 39.62ZM153.65 36.67C152.79 37.53 151.4 37.53 150.54 36.67C149.68 35.81 149.68 34.42 150.54 33.56C151.4 32.7 152.79 32.7 153.65 33.56C154.51 34.42 154.51 35.81 153.65 36.67ZM166.07 45.45C165.49 44.87 165.49 43.93 166.07 43.35C166.65 42.77 167.59 42.77 168.17 43.35C168.75 43.93 168.75 44.87 168.17 45.45C167.59 46.03 166.65 46.03 166.07 45.45ZM172.68 48.11C171.96 48.83 170.8 48.83 170.08 48.11C169.36 47.39 169.36 46.23 170.08 45.51C170.8 44.79 171.96 44.79 172.68 45.51C173.4 46.23 173.4 47.39 172.68 48.11Z" fill="#3CC6F4"/>
<path d="M171.46 48.77C172.542 48.77 173.42 47.8925 173.42 46.81C173.42 45.7275 172.542 44.85 171.46 44.85C170.378 44.85 169.5 45.7275 169.5 46.81C169.5 47.8925 170.378 48.77 171.46 48.77Z" fill="white"/>
<path d="M167.12 46.03C167.982 46.03 168.68 45.3316 168.68 44.47C168.68 43.6084 167.982 42.91 167.12 42.91C166.258 42.91 165.56 43.6084 165.56 44.47C165.56 45.3316 166.258 46.03 167.12 46.03Z" fill="white"/>
<path d="M156.48 40.2C157.341 40.2 158.04 39.5016 158.04 38.64C158.04 37.7785 157.341 37.08 156.48 37.08C155.618 37.08 154.92 37.7785 154.92 38.64C154.92 39.5016 155.618 40.2 156.48 40.2Z" fill="white"/>
<path d="M148.117 37.4461C148.876 36.9527 149.041 35.858 148.484 35.0012C147.927 34.1444 146.86 33.8498 146.101 34.3433C145.341 34.8367 145.177 35.9314 145.733 36.7882C146.29 37.645 147.357 37.9396 148.117 37.4461Z" fill="white"/>
<path d="M152.1 37.31C153.315 37.31 154.3 36.325 154.3 35.11C154.3 33.895 153.315 32.91 152.1 32.91C150.885 32.91 149.9 33.895 149.9 35.11C149.9 36.325 150.885 37.31 152.1 37.31Z" fill="white"/>
<path d="M147.256 35.8975C147.264 35.8895 147.263 35.8768 147.255 35.8692C147.247 35.8617 147.235 35.8621 147.227 35.8701C147.22 35.8781 147.22 35.8908 147.228 35.8984C147.236 35.906 147.249 35.9056 147.256 35.8975Z" fill="white"/>
</svg>
